<svg width="66" height="66" viewBox="0 0 66 66" fill="none" xmlns="http://www.w3.org/2000/svg">
<path d="M33 65C50.1208 65 64 51.1208 64 34C64 16.8792 50.1208 3 33 3C15.8792 3 2 16.8792 2 34C2 51.1208 15.8792 65 33 65Z" fill="#416894"/>
<path d="M33 63C50.1208 63 64 49.1208 64 32C64 14.8792 50.1208 1 33 1C15.8792 1 2 14.8792 2 32C2 49.1208 15.8792 63 33 63Z" fill="#4C7AAE"/>
<path opacity="0.15" d="M21.02 35.84V31L17.66 32.48L21.02 35.84Z" fill="black"/>
<path opacity="0.15" d="M48.35 29.52L44.75 31.3L21.56 47.41L36.9 62.75C42.4509 62.0392 47.7059 59.8391 52.1074 56.383C56.5089 52.927 59.8928 48.3439 61.9 43.12L48.35 29.52Z" fill="black"/>
<path d="M33 18L21 29V46C21 46.5304 21.2107 47.0391 21.5858 47.4142C21.9609 47.7893 22.4696 48 23 48H43C43.5304 48 44.0391 47.7893 44.4142 47.4142C44.7893 47.0391 45 46.5304 45 46V29L33 18Z" fill="#FFFCF2"/>
<path d="M48.34 29.5299L34.34 16.5299C33.9725 16.1982 33.4951 16.0146 33 16.0146C32.505 16.0146 32.0275 16.1982 31.66 16.5299L17.66 29.5299C17.44 29.6981 17.2573 29.9101 17.1234 30.1526C16.9896 30.3951 16.9076 30.6627 16.8826 30.9385C16.8576 31.2143 16.8902 31.4923 16.9782 31.7549C17.0663 32.0174 17.2079 32.2589 17.3941 32.4638C17.5803 32.6688 17.8071 32.8329 18.06 32.9457C18.313 33.0584 18.5866 33.1174 18.8635 33.119C19.1405 33.1205 19.4147 33.0645 19.6689 32.9545C19.923 32.8444 20.1516 32.6829 20.34 32.4799L33 20.7299L45.65 32.4799C45.8385 32.6829 46.067 32.8444 46.3212 32.9545C46.5753 33.0645 46.8496 33.1205 47.1265 33.119C47.4034 33.1174 47.677 33.0584 47.93 32.9457C48.1829 32.8329 48.4097 32.6688 48.5959 32.4638C48.7821 32.2589 48.9237 32.0174 49.0118 31.7549C49.0998 31.4923 49.1324 31.2143 49.1074 30.9385C49.0824 30.6627 49.0004 30.3951 48.8666 30.1526C48.7328 29.9101 48.55 29.6981 48.33 29.5299H48.34Z" fill="#EDC03D"/>
<path d="M37 36H29V48H37V36Z" fill="#F3643F"/>
</svg>
